<svg width="207" height="149" viewBox="0 0 207 149" fill="none" xmlns="http://www.w3.org/2000/svg">
<path d="M147.971 114.126C139.557 114.126 132.483 112.372 126.747 108.855C121.011 105.339 116.53 101.038 113.291 95.9543L127.579 83.3309C130.076 87.1249 132.989 90.0379 136.318 92.0702C139.647 94.1024 143.303 95.122 147.277 95.122C149.677 95.122 151.737 94.8445 153.45 94.2897C155.156 93.7348 156.502 92.9025 157.473 91.7927C158.444 90.683 158.929 89.3444 158.929 87.7699C158.929 85.4603 158.028 83.5598 156.224 82.0825C154.421 80.6051 151.945 78.9405 148.803 77.0886L141.173 72.5109C137.012 70.014 133.426 66.7541 130.423 62.7313C127.419 58.7085 125.914 53.6938 125.914 47.6804C125.914 42.0415 127.35 37.2072 130.215 33.1844C133.079 29.1615 136.922 26.0612 141.728 23.8902C146.535 21.7193 151.903 20.6304 157.82 20.6304C164.388 20.6304 170.443 22.1077 175.992 25.0693C181.54 28.031 185.889 31.7764 189.031 36.3055L175.021 48.374C172.988 45.9672 170.533 43.8656 167.668 42.0623C164.804 40.259 161.516 39.3573 157.82 39.3573C156.245 39.3573 154.768 39.5862 153.381 40.0509C151.993 40.5156 150.884 41.23 150.051 42.201C149.219 43.1721 148.803 44.4899 148.803 46.1545C148.803 48.0064 149.517 49.6224 150.953 51.0096C152.389 52.3968 154.261 53.8325 156.571 55.3099L165.865 61.4135C168.827 63.3555 171.504 65.4363 173.911 67.6558C176.311 69.8753 178.211 72.4416 179.598 75.3546C180.985 78.2677 181.679 81.8536 181.679 86.1053C181.679 92.2991 180.153 97.4594 177.101 101.572C174.05 105.685 169.978 108.807 164.894 110.936C159.81 113.065 154.164 114.126 147.971 114.126Z" fill="white"/>
<path d="M31.3503 114.119C23.4919 114.119 17.1109 112.545 12.2072 109.403C7.30351 106.261 3.23907 102.467 0 98.0281L14.1492 84.7112C16.2786 87.4856 18.7061 89.8923 21.4319 91.9245C24.1577 93.9637 27.4662 94.9763 31.3503 94.9763C36.0667 94.9763 39.6248 93.6793 42.0316 91.0922C44.4383 88.5051 46.2417 84.1563 47.4416 78.0527L54.9324 40.8763H20.2528L23.8595 22.2881H80.4565L68.2493 83.0466C67.0494 89.06 64.9201 94.4007 61.8683 99.0685C58.8165 103.736 54.7728 107.412 49.7304 110.097C44.688 112.781 38.5636 114.119 31.3503 114.119Z" fill="white"/>
<path d="M122.696 40.8763C123.397 38.0465 124.555 35.4732 126.192 33.1775C129.056 29.1546 132.899 26.0543 137.705 23.8833C139.093 23.2591 140.528 22.732 142.006 22.2881H84.2018L80.4703 40.8763H93.8011L79.6519 112.455H101.847L115.996 40.8763H122.703H122.696Z" fill="white"/>
<path d="M190.418 34.9183C182.005 24.7156 171.705 19.0975 159.158 19.2431C167.828 1.97273 188.858 -4.92849 206.128 3.74138C194.198 10.06 188.559 20.1517 190.418 34.9183Z" fill="#229ED9"/>
<path d="M18.5327 125.043V141.773C18.5327 142.855 18.3385 143.833 17.9432 144.721C17.5478 145.608 16.9722 146.364 16.2092 146.982C15.4463 147.599 14.5238 148.085 13.4418 148.431C12.3598 148.778 11.1321 148.952 9.75882 148.952C8.38551 148.952 7.27577 148.792 6.27006 148.48C5.26436 148.168 4.40431 147.717 3.67604 147.127C2.9547 146.545 2.35821 145.844 1.90044 145.04C1.44267 144.228 1.12362 143.333 0.950226 142.342L6.36717 141.398C6.79719 143.444 7.90694 144.471 9.68253 144.471C10.5218 144.471 11.2362 144.235 11.8396 143.763C12.4361 143.292 12.7343 142.55 12.7343 141.537V129.163H4.654V125.05H18.5327V125.043Z" fill="white"/>
<path d="M37.2319 148.584C36.2124 148.584 35.3662 148.299 34.6934 147.738C34.0206 147.176 33.5906 146.427 33.4172 145.476H33.1883C32.8831 146.621 32.2103 147.495 31.17 148.091C30.1296 148.688 28.8464 148.986 27.3205 148.986C25.3091 148.986 23.7763 148.514 22.7082 147.571C21.64 146.628 21.106 145.386 21.106 143.84C21.106 141.981 21.8758 140.594 23.4156 139.685C24.9554 138.776 27.0431 138.326 29.6857 138.326H32.8484V137.209C32.8484 136.356 32.5918 135.676 32.0855 135.17C31.5792 134.663 30.7261 134.414 29.5331 134.414C28.4164 134.414 27.5217 134.629 26.8628 135.052C26.2038 135.482 25.6559 135.96 25.2259 136.501L21.8689 133.859C22.6804 132.798 23.7069 131.965 24.9415 131.369C26.1761 130.772 27.8477 130.474 29.9562 130.474C32.7999 130.474 34.9361 131.022 36.3649 132.125C37.7868 133.228 38.5012 134.837 38.5012 136.945V144.7H40.367V148.577H37.2389L37.2319 148.584ZM29.4152 145.511C30.3584 145.511 31.163 145.331 31.8358 144.977C32.5086 144.623 32.8484 144.041 32.8484 143.236V141.162H30.1018C27.8893 141.162 26.7865 141.821 26.7865 143.139V143.638C26.7865 144.284 27.0153 144.762 27.4731 145.06C27.9309 145.366 28.5759 145.511 29.4152 145.511Z" fill="white"/>
<path d="M42.6697 123.628H48.3155V138.367H48.5444L51.0205 135.093L55.0225 130.876H61.2787L54.6064 137.653L62.0417 148.577H55.3277L50.8263 141.093L48.3086 143.59V148.584H42.6628V123.628H42.6697Z" fill="white"/>
<path d="M71.0583 148.584C69.1024 148.584 67.6181 148.147 66.6194 147.266C65.6137 146.392 65.1143 145.109 65.1143 143.423V134.753H62.2914V130.876H63.6993C64.4623 130.876 64.9825 130.717 65.2599 130.384C65.5374 130.058 65.6761 129.593 65.6761 128.983V126.083H70.7462V130.869H74.7136V134.746H70.7462V144.693H74.4084V148.57H71.0514L71.0583 148.584Z" fill="white"/>
<path d="M85.1313 148.986C83.6539 148.986 82.343 148.771 81.1847 148.348C80.0264 147.918 79.0485 147.301 78.2508 146.496C77.4532 145.684 76.8359 144.706 76.399 143.562C75.9689 142.418 75.7539 141.134 75.7539 139.72C75.7539 138.305 75.9689 137.022 76.399 135.877C76.829 134.733 77.4463 133.762 78.2508 132.957C79.0485 132.159 80.0264 131.549 81.1847 131.119C82.343 130.689 83.6539 130.481 85.1313 130.481C86.6086 130.481 87.9195 130.696 89.0778 131.119C90.2361 131.549 91.2141 132.159 92.0117 132.957C92.8093 133.755 93.4266 134.726 93.8636 135.877C94.2936 137.022 94.5086 138.305 94.5086 139.72C94.5086 141.134 94.2936 142.418 93.8636 143.562C93.4335 144.706 92.8162 145.684 92.0117 146.496C91.2141 147.307 90.2291 147.925 89.0778 148.348C87.9195 148.778 86.6086 148.986 85.1313 148.986ZM85.1313 145.039C86.2479 145.039 87.1149 144.734 87.7253 144.131C88.3357 143.52 88.6408 142.66 88.6408 141.537V137.93C88.6408 136.806 88.3357 135.94 87.7253 135.336C87.1149 134.726 86.2479 134.427 85.1313 134.427C84.0146 134.427 83.1476 134.733 82.5372 135.336C81.9269 135.946 81.6217 136.806 81.6217 137.93V141.537C81.6217 142.66 81.9269 143.527 82.5372 144.131C83.1476 144.741 84.0146 145.039 85.1313 145.039Z" fill="white"/>
<path d="M105.821 148.986C103.484 148.986 101.5 148.632 99.8701 147.925C98.2402 147.217 96.8599 146.295 95.7155 145.171L99.5302 141.759C101.334 143.541 103.56 144.436 106.203 144.436C107.624 144.436 108.679 144.18 109.365 143.666C110.052 143.153 110.392 142.473 110.392 141.627C110.392 140.982 110.191 140.441 109.781 140.004C109.372 139.574 108.547 139.276 107.305 139.116L104.677 138.818C101.854 138.506 99.7869 137.75 98.4829 136.557C97.172 135.364 96.5201 133.776 96.5201 131.799C96.5201 130.738 96.7489 129.774 97.2067 128.893C97.6645 128.012 98.3164 127.263 99.1696 126.632C100.023 126.001 101.063 125.508 102.298 125.161C103.532 124.815 104.933 124.641 106.515 124.641C108.519 124.641 110.288 124.925 111.814 125.487C113.34 126.049 114.65 126.874 115.739 127.95L111.89 131.397C111.252 130.752 110.482 130.225 109.58 129.808C108.679 129.399 107.541 129.191 106.168 129.191C104.871 129.191 103.907 129.392 103.269 129.794C102.631 130.197 102.318 130.752 102.318 131.466C102.318 132.264 102.568 132.846 103.061 133.2C103.553 133.554 104.365 133.81 105.481 133.97L108.11 134.344C110.857 134.726 112.889 135.475 114.207 136.592C115.531 137.708 116.19 139.29 116.19 141.336C116.19 142.459 115.961 143.493 115.504 144.443C115.046 145.386 114.38 146.198 113.506 146.878C112.625 147.55 111.543 148.078 110.246 148.445C108.949 148.813 107.479 149 105.821 149V148.986Z" fill="white"/>
<path d="M116.613 130.876H122.065L124.007 138.027L125.38 143.424H125.533L127.135 138.027L129.424 130.876H134.57L136.894 138.027L138.531 143.424H138.683L140.057 138.027L141.999 130.876H147.221L141.694 148.584H135.784L133.343 141.1L131.935 136.515H131.817L130.444 141.1L128.002 148.584H122.204L116.599 130.876H116.613Z" fill="white"/>
<path d="M151.841 128.99C150.696 128.99 149.864 128.761 149.344 128.296C148.824 127.839 148.56 127.242 148.56 126.528V125.785C148.56 125.064 148.824 124.475 149.344 124.017C149.864 123.559 150.696 123.323 151.841 123.323C152.985 123.323 153.818 123.552 154.338 124.017C154.858 124.482 155.121 125.071 155.121 125.785V126.528C155.121 127.249 154.858 127.839 154.338 128.296C153.818 128.754 152.985 128.99 151.841 128.99ZM149.018 130.876H154.664V148.584H149.018V130.876Z" fill="white"/>
<path d="M158.25 148.584V130.876H163.895V133.88H164.124C164.478 132.936 165.088 132.132 165.955 131.466C166.822 130.8 168.001 130.474 169.5 130.474C170.873 130.474 172.045 130.779 173.009 131.383C173.973 131.993 174.674 132.881 175.104 134.046H175.222C175.402 133.554 175.673 133.089 176.04 132.645C176.408 132.208 176.859 131.834 177.393 131.515C177.927 131.202 178.523 130.946 179.182 130.758C179.841 130.571 180.555 130.474 181.318 130.474C183.253 130.474 184.731 131.084 185.757 132.291C186.784 133.498 187.304 135.239 187.304 137.486V148.584H181.658V137.896C181.658 135.648 180.743 134.525 178.912 134.525C178.072 134.525 177.309 134.74 176.623 135.163C175.936 135.593 175.596 136.238 175.596 137.119V148.584H169.95V137.896C169.95 135.648 169.035 134.525 167.204 134.525C166.795 134.525 166.399 134.573 166.004 134.677C165.609 134.781 165.255 134.941 164.936 135.17C164.617 135.392 164.367 135.669 164.173 135.995C163.986 136.321 163.888 136.696 163.888 137.126V148.591H158.243L158.25 148.584Z" fill="white"/>
</svg>
